<svg xmlns="http://www.w3.org/2000/svg" xmlns:xlink="http://www.w3.org/1999/xlink" id="svg4355" width="24" height="24" version="1.1" viewBox="0 0 24 24"><circle id="path4860" cx="12" cy="12" r="3" fill="#fff"/><ellipse id="path4862" cx="12" cy="8" fill="#fff" rx="1.5" ry="1.5"/><use id="use4864" width="100%" height="100%" x="0" y="0" transform="rotate(45,12,12)" xlink:href="#path4862"/><use id="use4866" width="100%" height="100%" x="0" y="0" transform="rotate(45,12,12)" xlink:href="#use4864"/><use id="use4868" width="100%" height="100%" x="0" y="0" transform="rotate(45,12,12)" xlink:href="#use4866"/><use id="use4870" width="100%" height="100%" x="0" y="0" transform="rotate(45,12,12)" xlink:href="#use4868"/><use id="use4872" width="100%" height="100%" x="0" y="0" transform="rotate(45,12,12)" xlink:href="#use4870"/><use id="use4874" width="100%" height="100%" x="0" y="0" transform="rotate(45,12,12)" xlink:href="#use4872"/><use id="use4876" width="100%" height="100%" x="0" y="0" transform="rotate(45,12,12)" xlink:href="#use4874"/><circle id="path4878" cx="15.757" cy=".303" r="1" fill="#fff" transform="rotate(23.199)"/><use id="use4880" width="100%" height="100%" x="0" y="0" transform="rotate(45,12,12)" xlink:href="#path4878"/><use id="use4882" width="100%" height="100%" x="0" y="0" transform="rotate(45,12,12)" xlink:href="#use4880"/><use id="use4884" width="100%" height="100%" x="0" y="0" transform="rotate(45,12,12)" xlink:href="#use4882"/><use id="use4886" width="100%" height="100%" x="0" y="0" transform="rotate(45,12,12)" xlink:href="#use4884"/><use id="use4888" width="100%" height="100%" x="0" y="0" transform="rotate(45,12,12)" xlink:href="#use4886"/><use id="use4890" width="100%" height="100%" x="0" y="0" transform="rotate(45,12,12)" xlink:href="#use4888"/><use id="use4892" width="100%" height="100%" x="0" y="0" transform="rotate(45,12,12)" xlink:href="#use4890"/><circle id="path4894" cx="12" cy="5.5" r=".5" fill="#fff"/><use id="use4896" width="100%" height="100%" x="0" y="0" transform="rotate(45,12,12)" xlink:href="#path4894"/><use id="use4898" width="100%" height="100%" x="0" y="0" transform="rotate(45,12,12)" xlink:href="#use4896"/><use id="use4900" width="100%" height="100%" x="0" y="0" transform="rotate(45,12,12)" xlink:href="#use4898"/><use id="use4902" width="100%" height="100%" x="0" y="0" transform="rotate(45,12,12)" xlink:href="#use4900"/><use id="use4904" width="100%" height="100%" x="0" y="0" transform="rotate(45,12,12)" xlink:href="#use4902"/><use id="use4906" width="100%" height="100%" x="0" y="0" transform="rotate(45,12,12)" xlink:href="#use4904"/><use id="use4908" width="100%" height="100%" x="0" y="0" transform="rotate(45,12,12)" xlink:href="#use4906"/><circle id="path4910" cx="14.697" cy=".485" r=".5" fill="#fff" transform="rotate(15)"/><use id="use4912" width="100%" height="100%" x="0" y="0" transform="rotate(15,12,12)" xlink:href="#path4910"/><use id="use4914" width="100%" height="100%" x="0" y="0" transform="rotate(15,12,12)" xlink:href="#use4912"/><use id="use4916" width="100%" height="100%" x="0" y="0" transform="rotate(15,12,12)" xlink:href="#use4914"/><use id="use4918" width="100%" height="100%" x="0" y="0" transform="rotate(15,12,12)" xlink:href="#use4916"/><use id="use4920" width="100%" height="100%" x="0" y="0" transform="rotate(15,12,12)" xlink:href="#use4918"/><use id="use4922" width="100%" height="100%" x="0" y="0" transform="rotate(15 12 12)" xlink:href="#use4920"/><use id="use4924" width="100%" height="100%" x="0" y="0" transform="rotate(15 12 12)" xlink:href="#use4922"/><use id="use4926" width="100%" height="100%" x="0" y="0" transform="rotate(15 12 12)" xlink:href="#use4924"/><use id="use4928" width="100%" height="100%" x="0" y="0" transform="rotate(15 12 12)" xlink:href="#use4926"/><use id="use4930" width="100%" height="100%" x="0" y="0" transform="rotate(15 12 12)" xlink:href="#use4928"/><use id="use4932" width="100%" height="100%" x="0" y="0" transform="rotate(15 12 12)" xlink:href="#use4930"/><use id="use4934" width="100%" height="100%" x="0" y="0" transform="rotate(15 12 12)" xlink:href="#use4932"/><use id="use4936" width="100%" height="100%" x="0" y="0" transform="rotate(15 12 12)" xlink:href="#use4934"/><use id="use4938" width="100%" height="100%" x="0" y="0" transform="rotate(15 12 12)" xlink:href="#use4936"/><use id="use4940" width="100%" height="100%" x="0" y="0" transform="rotate(15 12 12)" xlink:href="#use4938"/><use id="use4942" width="100%" height="100%" x="0" y="0" transform="rotate(15 12 12)" xlink:href="#use4940"/><use id="use4944" width="100%" height="100%" x="0" y="0" transform="rotate(15 12 12)" xlink:href="#use4942"/><use id="use4946" width="100%" height="100%" x="0" y="0" transform="rotate(15 12 12)" xlink:href="#use4944"/><use id="use4948" width="100%" height="100%" x="0" y="0" transform="rotate(15 12 12)" xlink:href="#use4946"/><use id="use4950" width="100%" height="100%" x="0" y="0" transform="rotate(15 12 12)" xlink:href="#use4948"/><use id="use4952" width="100%" height="100%" x="0" y="0" transform="rotate(15 12 12)" xlink:href="#use4950"/><use id="use4954" width="100%" height="100%" x="0" y="0" transform="rotate(15 12 12)" xlink:href="#use4952"/><use id="use4956" width="100%" height="100%" x="0" y="0" transform="rotate(15 12 12)" xlink:href="#use4954"/><ellipse id="ellipse4958" cx="13" cy="9.5" fill="#fff" rx="1.5" ry="1.5"/><use id="use4960" width="100%" height="100%" x="0" y="0" transform="rotate(45,12,12)" xlink:href="#ellipse4958"/><use id="use4962" width="100%" height="100%" x="0" y="0" transform="rotate(45,12,12)" xlink:href="#use4960"/><use id="use4964" width="100%" height="100%" x="0" y="0" transform="rotate(45,12,12)" xlink:href="#use4962"/><use id="use4966" width="100%" height="100%" x="0" y="0" transform="rotate(45,12,12)" xlink:href="#use4964"/><use id="use4968" width="100%" height="100%" x="0" y="0" transform="rotate(45,12,12)" xlink:href="#use4966"/><use id="use4970" width="100%" height="100%" x="0" y="0" transform="rotate(45,12,12)" xlink:href="#use4968"/><use id="use4972" width="100%" height="100%" x="0" y="0" transform="rotate(45,12,12)" xlink:href="#use4970"/><ellipse id="path4974" cx="11.601" cy="3.662" fill="#fff" rx=".41" ry=".41" transform="matrix(.99013 -.14013 .14018 .99013 0 0)"/><use id="use5074" width="100%" height="100%" x="0" y="0" transform="rotate(-20,12,12)" xlink:href="#path4974"/><use id="use5076" width="100%" height="100%" x="0" y="0" transform="rotate(-20,12,12)" xlink:href="#use5074"/><use id="use5078" width="100%" height="100%" x="0" y="0" transform="rotate(-20 12 12)" xlink:href="#use5076"/><use id="use5080" width="100%" height="100%" x="0" y="0" transform="rotate(-20,12,12)" xlink:href="#use5078"/><use id="use5082" width="100%" height="100%" x="0" y="0" transform="rotate(-20,12,12)" xlink:href="#use5080"/><use id="use5084" width="100%" height="100%" x="0" y="0" transform="rotate(-20,12,12)" xlink:href="#use5082"/><use id="use5086" width="100%" height="100%" x="0" y="0" transform="rotate(-20,12,12)" xlink:href="#use5084"/><use id="use5088" width="100%" height="100%" x="0" y="0" transform="rotate(-20,12,12)" xlink:href="#use5086"/><use id="use5090" width="100%" height="100%" x="0" y="0" transform="rotate(-20,12,12)" xlink:href="#use5088"/><use id="use5092" width="100%" height="100%" x="0" y="0" transform="rotate(-20,12,12)" xlink:href="#use5090"/><use id="use5094" width="100%" height="100%" x="0" y="0" transform="rotate(-20,12,12)" xlink:href="#use5092"/><use id="use5096" width="100%" height="100%" x="0" y="0" transform="rotate(-20,12,12)" xlink:href="#use5094"/><use id="use5098" width="100%" height="100%" x="0" y="0" transform="rotate(-20,12,12)" xlink:href="#use5096"/><use id="use5100" width="100%" height="100%" x="0" y="0" transform="rotate(-20,12,12)" xlink:href="#use5098"/><use id="use5102" width="100%" height="100%" x="0" y="0" transform="rotate(-20,12,12)" xlink:href="#use5100"/><use id="use5104" width="100%" height="100%" x="0" y="0" transform="rotate(-20,12,12)" xlink:href="#use5102"/><use id="use5106" width="100%" height="100%" x="0" y="0" transform="rotate(-20,12,12)" xlink:href="#use5104"/></svg>