<svg xmlns="http://www.w3.org/2000/svg" id="svg4355" width="24" height="24" version="1.1" viewBox="0 0 24 24"><ellipse id="path925-3" cx="-1.601" cy="18.053" fill="#fff" rx="1.387" ry="1.564" transform="rotate(-45.758)"/><path id="circle4737" fill="#fff" d="m11.878 2.5903a9.4134 9.4134 0 0 0 -9.2914 9.4097 9.4134 9.4134 0 0 0 9.2784 9.406 10.771 15.286 0 0 1 -2.2847 -9.406 10.771 15.286 0 0 1 2.2977 -9.4097z"/><ellipse id="path915" cx="15.45" cy="-2.844" fill="#fff" rx=".797" ry=".443" transform="rotate(27.207)"/><ellipse id="path917" cx="17.843" cy="6.629" fill="#fff" rx=".944" ry=".826"/><ellipse id="path919" cx="19.092" cy=".789" fill="#fff" rx=".708" ry=".472" transform="rotate(24.305)"/><ellipse id="path921" cx="14.685" cy="12.502" fill="#fff" rx="1.918" ry="1.682"/><ellipse id="path923" cx="13.687" cy="15.471" fill="#fff" rx="1.712" ry="2.007"/><ellipse id="path925" cx="5.556" cy="15.563" fill="#fff" rx="1.387" ry="1.564" transform="rotate(-45.758)"/><ellipse id="path927" cx="12.363" cy="11.306" fill="#fff" rx="1.682" ry="1.475"/><ellipse id="path929" cx="11.528" cy="17.164" fill="#fff" rx=".59" ry=".443"/><ellipse id="path931" cx="14.538" cy="19.643" fill="#fff" rx="1.239" ry=".915"/><ellipse id="path933" cx="-2.242" cy="24.827" fill="#fff" rx="1.357" ry=".767" transform="rotate(-48.548)"/><circle id="path935" cx="12" cy="12" r="9.64" fill="none" stroke="#fff" stroke-width=".944"/><ellipse id="path945" cx="11.626" cy="14.963" fill="#fff" rx="1.549" ry="1.269"/><ellipse id="path945-7" cx="13.562" cy="10.646" fill="#fff" rx=".826" ry=".826"/><circle id="path945-5" cx="13.706" cy="11.922" r=".472" fill="#fff"/><ellipse id="path945-5-9" cx="5.844" cy="16.163" fill="#fff" rx=".472" ry=".931" transform="rotate(-18.114)"/><ellipse id="path929-1" cx=".438" cy="13.959" fill="#fff" rx=".792" ry=".592" transform="matrix(.61258 -.79041 .78261 .62252 0 0)"/></svg>