<svg xmlns="http://www.w3.org/2000/svg" xmlns:xlink="http://www.w3.org/1999/xlink" id="svg4355" width="24" height="24" version="1.1" viewBox="0 0 22.5 22.5"><g id="layer2" transform="translate(0,-105.5)"><g id="g4572" transform="matrix(.55287 0 0 .54533 2.2599 49.917)"><path id="path4967" fill="#fff" fill-rule="evenodd" stroke="#fff" stroke-width="1.707" d="m7.5 108.31c7.5 4.6875 0.9375 7.5 0.9375 7.5l5.625 5.625s7.5-13.125-6.5625-13.125z"/><use id="use4564" width="100%" height="100%" x="0" y="0" stroke-width="1.821" transform="rotate(60,11.25,116.75)" xlink:href="#path4967"/><use id="use4566" width="100%" height="100%" x="0" y="0" stroke-width="1.821" transform="rotate(60,11.25,116.75)" xlink:href="#use4564"/><use id="use4568" width="100%" height="100%" x="0" y="0" stroke-width="1.821" transform="rotate(60,11.25,116.75)" xlink:href="#use4566"/><use id="use4570" width="100%" height="100%" x="0" y="0" stroke-width="1.821" transform="rotate(60,11.25,116.75)" xlink:href="#use4568"/><use id="use4572" width="100%" height="100%" x="0" y="0" stroke-width="1.821" transform="rotate(60,11.25,116.75)" xlink:href="#use4570"/></g><ellipse id="path4588" cx="-95.173" cy="100.47" fill="#fff" rx="5.814" ry="1.729" transform="matrix(.71725 -.69682 .83728 .54677 0 0)"/><path id="path4590" fill="#fff" d="m7.9029 121.66-0.89056 0.35701-0.55988 0.77915-0.88216-0.37727-0.94684 0.15505-0.35701-0.89056-0.77916-0.55988 0.37728-0.88216-0.15505-0.94684 0.89056-0.35701 0.55988-0.77916 0.88216 0.37728 0.94684-0.15506 0.35701 0.89056 0.77916 0.55988-0.37728 0.88216z" transform="matrix(.82612 0 0 .75657 .87518 31.558)"/></g></svg>