<svg xmlns="http://www.w3.org/2000/svg" xmlns:xlink="http://www.w3.org/1999/xlink" id="svg4355" width="24" height="24" version="1.1" viewBox="0 0 24 24"><rect id="rect5249" width="18" height="18" x="3" y="3" fill="none" stroke="#fff" stroke-linecap="round" stroke-linejoin="round" stroke-width="2" rx="2" ry="2"/><circle id="circle5255" cx="12" cy="6.5" r="1" fill="#fff" stroke="#fff" stroke-linecap="round" stroke-linejoin="round"/><use id="use5293" width="100%" height="100%" x="0" y="0" transform="rotate(45,12,12)" xlink:href="#circle5255"/><use id="use5295" width="100%" height="100%" x="0" y="0" transform="rotate(45,12,12)" xlink:href="#use5293"/><use id="use5297" width="100%" height="100%" x="0" y="0" transform="rotate(45,12,12)" xlink:href="#use5295"/><use id="use5299" width="100%" height="100%" x="0" y="0" transform="rotate(45,12,12)" xlink:href="#use5297"/><use id="use5301" width="100%" height="100%" x="0" y="0" transform="rotate(45,12,12)" xlink:href="#use5299"/><use id="use5303" width="100%" height="100%" x="0" y="0" transform="rotate(45,12,12)" xlink:href="#use5301"/><use id="use5305" width="100%" height="100%" x="0" y="0" transform="rotate(45,12,12)" xlink:href="#use5303"/></svg>