<svg xmlns="http://www.w3.org/2000/svg" id="svg4355" width="24" height="24" version="1.1" viewBox="0 0 24 24"><circle id="path5263" cx="9" cy="9" r="1" fill="#fff"/><circle id="circle5265" cx="13" cy="15" r="1" fill="#fff"/><circle id="circle5267" cx="8" cy="17" r="1" fill="#fff"/><circle id="circle5269" cx="15" cy="11" r="1" fill="#fff"/><circle id="circle5271" cx="17.529" cy="19" r="1" fill="#fff"/><circle id="circle5273" cx="13" cy="7" r="1" fill="#fff"/><circle id="circle5275" cx="13" cy="7" r="1" fill="#fff"/><circle id="path5277" cx="10.5" cy="5.5" r=".5" fill="#fff"/><circle id="circle5279" cx="6" cy="10" r=".5" fill="#fff"/><circle id="circle5281" cx="7.75" cy="12" r=".5" fill="#fff"/><circle id="circle5283" cx="18.5" cy="7.25" r=".5" fill="#fff"/><circle id="circle5285" cx="18" cy="13" r=".5" fill="#fff"/><circle id="circle5287" cx="12" cy="17" r=".5" fill="#fff"/><circle id="circle5289" cx="6" cy="6" r=".5" fill="#fff"/><circle id="circle5291" cx="15" cy="4" r=".5" fill="#fff"/><circle id="circle5293" cx="4.5" cy="15.5" r=".5" fill="#fff"/><circle id="circle5295" cx="11" cy="20" r=".5" fill="#fff"/><circle id="circle5297" cx="7" cy="3" r=".5" fill="#fff"/><circle id="circle5299" cx="13" cy="10" r=".5" fill="#fff"/><circle id="circle5301" cx="13" cy="10" r=".5" fill="#fff"/><circle id="circle5305" cx="20" cy="11" r=".5" fill="#fff"/><circle id="circle5307" cx="4.5" cy="12.5" r=".5" fill="#fff"/><circle id="circle5281-3" cx="11" cy="12" r=".5" fill="#fff"/><circle id="circle5281-3-6" cx="16.381" cy="15.408" r=".5" fill="#fff"/><circle id="circle5281-3-7" cx="8.552" cy="13.079" r=".5" fill="#fff"/><circle id="circle5281-3-5" cx="13.2" cy="11.491" r=".5" fill="#fff"/></svg>