<svg xmlns="http://www.w3.org/2000/svg" id="svg4355" width="24" height="24" version="1.1" viewBox="0 0 24 24"><circle id="circle5267" cx="8" cy="17" r="1" fill="#fff"/><circle id="circle5271" cx="15" cy="17" r="1" fill="#fff"/><circle id="circle5273" cx="13" cy="7" r="1" fill="#fff"/><circle id="circle5275" cx="13" cy="7" r="1" fill="#fff"/><circle id="path5277" cx="10.5" cy="5.5" r=".5" fill="#fff"/><circle id="circle5281" cx="7.75" cy="12" r=".5" fill="#fff"/><circle id="circle5283" cx="18.5" cy="7.25" r=".5" fill="#fff"/><circle id="circle5287" cx="12" cy="17" r=".5" fill="#fff"/><circle id="circle5289" cx="6" cy="6" r=".5" fill="#fff"/><circle id="circle5291" cx="15" cy="4" r=".5" fill="#fff"/><circle id="circle5293" cx="4.5" cy="15.5" r=".5" fill="#fff"/><circle id="circle5295" cx="14.804" cy="20.738" r=".5" fill="#fff"/><circle id="circle5297" cx="7" cy="3" r=".5" fill="#fff"/><circle id="circle5299" cx="18.621" cy="19.937" r=".5" fill="#fff"/><circle id="circle5301" cx="7.776" cy="9.035" r=".5" fill="#fff"/><circle id="circle5305" cx="19.375" cy="12.874" r=".5" fill="#fff"/><circle id="circle5307" cx="4.5" cy="12.5" r=".5" fill="#fff"/><circle id="circle5307-3" cx="4.5" cy="20.5" r=".5" fill="#fff"/><circle id="circle5305-6" cx="14" cy="13" r=".5" fill="#fff"/><circle id="circle5305-7" cx="17" cy="15" r=".5" fill="#fff"/><circle id="circle5305-5" cx="20" cy="4" r=".5" fill="#fff"/><rect id="rect879" width="11" height="8" x="10.424" y="10.576" fill="none" stroke="#fff" stroke-width=".849"/></svg>