<svg xmlns="http://www.w3.org/2000/svg" id="svg4355" width="24" height="24" version="1.1" viewBox="0 0 22.5 22.5"><path id="path4584" fill="#fff" d="m10.352 4.3955-0.6133 0.6557-0.0297 0.8976-0.8976 0.0297-0.6557 0.6137-0.6557-0.6137-0.8976-0.0297-0.0297-0.8976-0.6137-0.6557 0.6137-0.6557 0.0297-0.8976 0.8976-0.0297 0.6557-0.6137l0.6557 0.6137 0.8976 0.029698 0.029698 0.8976z"/><path id="path4586" fill="#fff" d="m5.7623 17.883-0.6137 0.6557-0.029698 0.8976-0.8976 0.0297-0.6557 0.6137-0.6557-0.6137-0.8976-0.0297-0.029698-0.8976-0.6137-0.6557 0.6137-0.6557 0.029698-0.8976 0.8976-0.0297 0.6557-0.6137 0.6557 0.6137 0.8976 0.0297 0.029698 0.8976z"/><path id="path4588" fill="#fff" d="m21.602 14.708-0.6137 0.6557-0.0297 0.8976-0.8976 0.0297-0.6557 0.6137-0.6557-0.6137-0.8976-0.0297-0.0297-0.8976-0.6137-0.6557 0.6137-0.6557 0.0297-0.8976 0.8976-0.0297 0.6557-0.6137 0.6557 0.6137 0.8976 0.0297 0.0297 0.8976z"/><path id="path4590" fill="none" stroke="#fff" stroke-linecap="round" stroke-width="1.406" d="m4.691 14.849 2.4253-7.4638"/><path id="path4592" fill="none" stroke="#fff" stroke-linecap="round" stroke-width="1.406" d="m10.867 6.5625 6.0738 5.9016"/><path id="path4594" fill="none" stroke="#fff" stroke-linecap="round" stroke-width="1.406" d="m7.0477 17.743 9.1393-1.785"/></svg>