<svg xmlns="http://www.w3.org/2000/svg" xmlns:svg="http://www.w3.org/2000/svg" xmlns:xlink="http://www.w3.org/1999/xlink" id="svg2" width="96" height="96" version="1.1" viewBox="0 0 96 96" xml:space="preserve" style="overflow:visible"><metadata id="metadata156"/><defs id="defs140"><linearGradient id="linearGradient8760"><stop id="stop8762" style="stop-color:#fff;stop-opacity:0" offset="0"/><stop id="stop8772" style="stop-color:#e7bc70;stop-opacity:.384" offset=".5"/><stop id="stop8764" style="stop-color:#fff;stop-opacity:.008" offset="1"/></linearGradient><radialGradient id="XMLID_96_" cx="-212.516" cy="468.589" r="247.111" fx="-212.516" fy="468.589" gradientTransform="matrix(1,0,0,-1,229,633)" gradientUnits="userSpaceOnUse"><stop id="stop8" style="stop-color:#fff;stop-opacity:1" offset=".315"/><stop id="stop10" style="stop-color:#f6c499;stop-opacity:1" offset=".376"/><stop id="stop12" style="stop-color:#caa290;stop-opacity:1" offset=".403"/><stop id="stop14" style="stop-color:#987c86;stop-opacity:1" offset=".438"/><stop id="stop16" style="stop-color:#715d7e;stop-opacity:1" offset=".47"/><stop id="stop18" style="stop-color:#544779;stop-opacity:1" offset=".5"/><stop id="stop20" style="stop-color:#433a75;stop-opacity:1" offset=".526"/><stop id="stop22" style="stop-color:#3d3574;stop-opacity:1" offset=".545"/><stop id="stop24" style="stop-color:#150941;stop-opacity:1" offset=".652"/></radialGradient><linearGradient id="XMLID_97_" x1="-142.672" x2="-142.672" y1="525.602" y2="543.618" gradientTransform="matrix(1,0,0,-1,229,633)" gradientUnits="userSpaceOnUse"><stop id="stop29" style="stop-color:#fff;stop-opacity:1" offset="0"/><stop id="stop31" style="stop-color:#907a95;stop-opacity:1" offset=".236"/><stop id="stop33" style="stop-color:#2e2735;stop-opacity:1" offset="1"/></linearGradient><radialGradient id="XMLID_96_-8" cx="-212.516" cy="468.589" r="247.111" fx="-212.516" fy="468.589" gradientTransform="matrix(1,0,0,-1,229,633)" gradientUnits="userSpaceOnUse"><stop id="stop4685" style="stop-color:#fff;stop-opacity:1" offset=".315"/><stop id="stop4687" style="stop-color:#f6c499;stop-opacity:1" offset=".376"/><stop id="stop4689" style="stop-color:#caa290;stop-opacity:1" offset=".403"/><stop id="stop4691" style="stop-color:#987c86;stop-opacity:1" offset=".438"/><stop id="stop4693" style="stop-color:#715d7e;stop-opacity:1" offset=".47"/><stop id="stop4695" style="stop-color:#544779;stop-opacity:1" offset=".5"/><stop id="stop4697" style="stop-color:#433a75;stop-opacity:1" offset=".526"/><stop id="stop4699" style="stop-color:#3d3574;stop-opacity:1" offset=".545"/><stop id="stop4701" style="stop-color:#150941;stop-opacity:1" offset=".652"/></radialGradient><linearGradient id="XMLID_97_-3" x1="-142.672" x2="-142.672" y1="525.602" y2="543.618" gradientTransform="matrix(1,0,0,-1,229,633)" gradientUnits="userSpaceOnUse"><stop id="stop4706" style="stop-color:#fff;stop-opacity:1" offset="0"/><stop id="stop4708" style="stop-color:#907a95;stop-opacity:1" offset=".236"/><stop id="stop4710" style="stop-color:#2e2735;stop-opacity:1" offset="1"/></linearGradient><linearGradient id="XMLID_98_" x1="-158.75" x2="-158.75" y1="514.284" y2="537.041" gradientTransform="matrix(1,0,0,-1,229,633)" gradientUnits="userSpaceOnUse"><stop id="stop4719" style="stop-color:#3d3a42;stop-opacity:1" offset="0"/><stop id="stop4721" style="stop-color:#190721;stop-opacity:1" offset="1"/></linearGradient><linearGradient id="linearGradient5565" x1="-158.75" x2="-158.75" y1="514.284" y2="537.041" gradientTransform="matrix(1.7692589,0,0,-0.922039,91.747244,651.16469)" gradientUnits="userSpaceOnUse" xlink:href="#XMLID_98_"/><linearGradient id="linearGradient5568" x1="-142.672" x2="-142.672" y1="525.602" y2="543.618" gradientTransform="matrix(1.9024803,0,0,-1.0658093,105.97557,726.72947)" gradientUnits="userSpaceOnUse" xlink:href="#XMLID_97_-3"/><radialGradient id="radialGradient5571" cx="-212.516" cy="468.589" r="247.111" fx="-212.516" fy="468.589" gradientTransform="matrix(1.3766776,0,0,-0.922039,14.889965,651.16469)" gradientUnits="userSpaceOnUse" xlink:href="#XMLID_96_-8"/><filter id="filter5724" width="2.46" height="2.589" x="-.73" y="-.795" color-interpolation-filters="sRGB"><feGaussianBlur id="feGaussianBlur5726" stdDeviation=".578"/></filter><filter id="filter5728" width="2.46" height="2.589" x="-.73" y="-.795" color-interpolation-filters="sRGB"><feGaussianBlur id="feGaussianBlur5730" stdDeviation=".578"/></filter><filter id="filter5732" width="2.46" height="2.589" x="-.73" y="-.795" color-interpolation-filters="sRGB"><feGaussianBlur id="feGaussianBlur5734" stdDeviation=".578"/></filter><filter id="filter5736" width="2.46" height="2.589" x="-.73" y="-.795" color-interpolation-filters="sRGB"><feGaussianBlur id="feGaussianBlur5738" stdDeviation=".578"/></filter><filter id="filter5740" width="1.786" height="1.856" x="-.393" y="-.428" color-interpolation-filters="sRGB"><feGaussianBlur id="feGaussianBlur5742" stdDeviation=".578"/></filter><filter id="filter8412" color-interpolation-filters="sRGB"><feOffset id="feOffset8414" dx="3" dy="3"/><feGaussianBlur id="feGaussianBlur8418" result="result1" stdDeviation="2.7"/><feMerge id="feMerge8420"><feMergeNode id="feMergeNode8422" in="result1"/><feMergeNode id="feMergeNode8424" in="SourceGraphic"/></feMerge></filter><radialGradient id="radialGradient8504" cx="-212.516" cy="468.589" r="247.111" fx="-212.516" fy="468.589" gradientTransform="matrix(1.3766776,0,0,-0.922039,14.889965,651.16469)" gradientUnits="userSpaceOnUse" xlink:href="#XMLID_96_-8"/><linearGradient id="linearGradient8506" x1="-142.672" x2="-142.672" y1="525.602" y2="543.618" gradientTransform="matrix(1.9024803,0,0,-1.0658093,105.97557,726.72947)" gradientUnits="userSpaceOnUse" xlink:href="#XMLID_97_-3"/><linearGradient id="linearGradient8508" x1="-158.75" x2="-158.75" y1="514.284" y2="537.041" gradientTransform="matrix(1.7692589,0,0,-0.922039,91.747244,651.16469)" gradientUnits="userSpaceOnUse" xlink:href="#XMLID_98_"/><linearGradient id="linearGradient8582" x1="-158.75" x2="-158.75" y1="514.284" y2="537.041" gradientTransform="matrix(1.7153198,0,0,-0.922039,80.762122,651.16469)" gradientUnits="userSpaceOnUse" xlink:href="#XMLID_98_"/><linearGradient id="linearGradient8585" x1="-142.672" x2="-142.672" y1="525.602" y2="543.618" gradientTransform="matrix(1.8444798,0,0,-1.0658093,94.556672,726.72947)" gradientUnits="userSpaceOnUse" xlink:href="#XMLID_97_-3"/><radialGradient id="radialGradient8588" cx="-212.516" cy="468.589" r="247.111" fx="-212.516" fy="468.589" gradientTransform="matrix(1.3347071,0,0,-0.922039,6.2479759,651.16469)" gradientUnits="userSpaceOnUse" xlink:href="#XMLID_96_-8"/><radialGradient id="radialGradient8672" cx="-212.516" cy="468.589" r="247.111" fx="-212.516" fy="468.589" gradientTransform="matrix(1.3347071,0,0,-0.922039,6.2479759,651.16469)" gradientUnits="userSpaceOnUse" xlink:href="#XMLID_96_-8"/><linearGradient id="linearGradient8674" x1="-142.672" x2="-142.672" y1="525.602" y2="543.618" gradientTransform="matrix(1.8444798,0,0,-1.0658093,94.556672,726.72947)" gradientUnits="userSpaceOnUse" xlink:href="#XMLID_97_-3"/><linearGradient id="linearGradient8676" x1="-158.75" x2="-158.75" y1="514.284" y2="537.041" gradientTransform="matrix(1.7153198,0,0,-0.922039,80.762122,651.16469)" gradientUnits="userSpaceOnUse" xlink:href="#XMLID_98_"/><linearGradient id="linearGradient8750" x1="-158.75" x2="-158.75" y1="514.284" y2="537.041" gradientTransform="matrix(1.7153198,0,0,-0.922039,80.762122,651.16469)" gradientUnits="userSpaceOnUse" xlink:href="#XMLID_98_"/><linearGradient id="linearGradient8753" x1="-142.672" x2="-142.672" y1="525.602" y2="543.618" gradientTransform="matrix(1.8444798,0,0,-1.0658093,94.556672,726.72947)" gradientUnits="userSpaceOnUse" xlink:href="#XMLID_97_-3"/><radialGradient id="radialGradient8756" cx="-212.516" cy="468.589" r="247.111" fx="-212.516" fy="468.589" gradientTransform="matrix(1.3347071,0,0,-0.922039,6.2479759,651.16469)" gradientUnits="userSpaceOnUse" xlink:href="#XMLID_96_-8"/><linearGradient id="linearGradient8770" x1="-283.849" x2="-99.634" y1="151.744" y2="151.744" gradientTransform="matrix(0.4367259,-0.60659461,0.58090718,0.45603771,-173.1681,-60.613678)" gradientUnits="userSpaceOnUse" xlink:href="#linearGradient8760"/><filter id="filter8412-5" color-interpolation-filters="sRGB"><feOffset id="feOffset8414-2" dx="3" dy="3"/><feGaussianBlur id="feGaussianBlur8418-2" result="result1" stdDeviation="2.7"/><feMerge id="feMerge8420-9"><feMergeNode id="feMergeNode8422-9" in="result1"/><feMergeNode id="feMergeNode8424-9" in="SourceGraphic"/></feMerge></filter><linearGradient id="linearGradient4140" x1="-158.75" x2="-158.75" y1="514.284" y2="537.041" gradientTransform="matrix(0.47288199,0,0,-0.30130528,100.64123,193.2171)" gradientUnits="userSpaceOnUse" xlink:href="#XMLID_98_"/><linearGradient id="linearGradient4143" x1="-142.672" x2="-142.672" y1="525.602" y2="543.618" gradientTransform="matrix(0.47121141,0,0,-0.34828675,100.2162,217.91028)" gradientUnits="userSpaceOnUse" xlink:href="#XMLID_97_-3"/><radialGradient id="radialGradient4146" cx="-212.516" cy="468.589" r="247.111" fx="-212.516" fy="468.589" gradientTransform="matrix(0.36866493,0,0,-0.30130528,80.245421,193.2171)" gradientUnits="userSpaceOnUse" xlink:href="#XMLID_96_-8"/><radialGradient id="radialGradient4327" cx="-212.516" cy="468.589" r="247.111" fx="-212.516" fy="468.589" gradientTransform="matrix(0.36866493,0,0,-0.30130528,80.245421,193.2171)" gradientUnits="userSpaceOnUse" xlink:href="#XMLID_96_-8"/><linearGradient id="linearGradient4329" x1="-142.672" x2="-142.672" y1="525.602" y2="543.618" gradientTransform="matrix(0.47121141,0,0,-0.34828675,100.2162,217.91028)" gradientUnits="userSpaceOnUse" xlink:href="#XMLID_97_-3"/><linearGradient id="linearGradient4331" x1="-158.75" x2="-158.75" y1="514.284" y2="537.041" gradientTransform="matrix(0.47288199,0,0,-0.30130528,100.64123,193.2171)" gradientUnits="userSpaceOnUse" xlink:href="#XMLID_98_"/><filter id="filter5235" style="color-interpolation-filters:sRGB"><feFlood id="feFlood5237" flood-color="#000" flood-opacity=".7" result="flood"/><feComposite id="feComposite5239" in="flood" in2="SourceGraphic" operator="in" result="composite1"/><feGaussianBlur id="feGaussianBlur5241" in="composite" result="blur" stdDeviation="1"/><feOffset id="feOffset5243" dx="0" dy="0" result="offset"/><feComposite id="feComposite5245" in="SourceGraphic" in2="offset" operator="over" result="composite2"/></filter></defs><path style="fill:#fff;fill-opacity:1" id="path1001" d="M 3.6738281,70.642578 C 2.8159669,70.647678 0.8893347,70.683501 0,70.707031 V 96 H 96 V 89.431641 C 51.749085,94.523673 47.541112,70.411691 3.6738281,70.642578 Z"/><path id="path4743" d="m 14.796414,18.616877 c 1.863789,0 3.430956,-1.407353 3.430956,-3.151758 0,-1.744394 -1.567167,-3.151739 -3.430956,-3.151739 -1.900903,0 -3.432928,1.407345 -3.432928,3.151739 0,1.744405 1.532025,3.151758 3.432928,3.151758 z" style="fill:#fff;stroke-width:2.6868999"/><path id="path4757" d="m 58.188944,16.043884 c 12.299548,6.591142 18.3847,21.194582 13.715905,34.770098 C 66.725944,65.940344 50.16761,74.046475 34.92972,68.905463 27.255875,66.30461 21.347244,60.820048 18.089238,54.060568 c 2.831293,2.690537 6.282514,4.844362 10.245228,6.184121 14.506785,4.880227 30.267281,-2.828525 35.209906,-17.225008 3.287206,-9.622484 0.909024,-19.806535 -5.355428,-26.975797 z" style="fill:#fff;stroke-width:1.98923767"/><path id="path4759" d="m 26.612971,24.273955 c 0.999246,0 1.830632,-0.763737 1.830632,-1.681661 0,-0.948377 -0.833345,-1.713916 -1.830632,-1.713916 -1.032402,0 -1.86576,0.76373 -1.86576,1.713916 0,0.916134 0.833358,1.681661 1.86576,1.681661 z" style="fill:#fff;stroke-width:2.6868999"/><path id="path4791" d="m 26.178384,38.24633 c 1.032412,0 1.863801,-0.765528 1.863801,-1.713923 0,-0.917912 -0.831389,-1.681642 -1.863801,-1.681642 -1.001187,0 -1.832587,0.765531 -1.832587,1.681642 -0.0019,0.950187 0.8314,1.713923 1.832587,1.713923 z" style="fill:#fff;stroke-width:2.6868999"/><path style="fill:#fff;stroke-width:1.7761786" id="path960" d="m 73.603021,11.67181 c 1.23206,0 2.268038,-0.930332 2.268038,-2.083473 0,-1.1531342 -1.035978,-2.083461 -2.268038,-2.083461 -1.256595,0 -2.269342,0.9303268 -2.269342,2.083461 0,1.153141 1.012747,2.083473 2.269342,2.083473 z"/><path style="fill:#fff;stroke-width:3.71282911" id="path962" d="m 80.098994,22.665283 c 1.380787,0 2.529618,-1.055354 2.529618,-2.323764 0,-1.310495 -1.151538,-2.368335 -2.529618,-2.368335 -1.426598,0 -2.578155,1.055341 -2.578155,2.368335 0,1.265938 1.151557,2.323764 2.578155,2.323764 z"/><path style="overflow:visible;fill:#fff;fill-opacity:1" id="path4712" d="M 82.16016,72.616858 C 70.26343,72.750543 57.881505,76.693393 48.693362,80.347326 61.097278,85.886333 73.26588,90.980961 96,88.364905 V 74.56803 C 91.63485,73.124073 86.94031,72.563143 82.16016,72.616858 Z"/></svg>