<svg xmlns="http://www.w3.org/2000/svg" xmlns:xlink="http://www.w3.org/1999/xlink" id="svg4355" width="24" height="24" version="1.1" viewBox="0 0 24 24"><circle id="path6056" cx="12" cy="3" r="1" fill="#fff" stroke="#fff" stroke-linecap="round" stroke-linejoin="round"/><use id="use6058" width="100%" height="100%" x="0" y="0" transform="rotate(30,12,12)" xlink:href="#path6056"/><use id="use6060" width="100%" height="100%" x="0" y="0" transform="rotate(30,12,12)" xlink:href="#use6058"/><use id="use6062" width="100%" height="100%" x="0" y="0" transform="rotate(30,12,12)" xlink:href="#use6060"/><use id="use6064" width="100%" height="100%" x="0" y="0" transform="rotate(30,12,12)" xlink:href="#use6062"/><use id="use6066" width="100%" height="100%" x="0" y="0" transform="rotate(30,12,12)" xlink:href="#use6064"/><use id="use6068" width="100%" height="100%" x="0" y="0" transform="rotate(30,12,12)" xlink:href="#use6066"/><use id="use6070" width="100%" height="100%" x="0" y="0" transform="rotate(30,12,12)" xlink:href="#use6068"/><use id="use6072" width="100%" height="100%" x="0" y="0" transform="rotate(30,12,12)" xlink:href="#use6070"/><use id="use6074" width="100%" height="100%" x="0" y="0" transform="rotate(30,12,12)" xlink:href="#use6072"/><use id="use6076" width="100%" height="100%" x="0" y="0" transform="rotate(30,12,12)" xlink:href="#use6074"/><use id="use6078" width="100%" height="100%" x="0" y="0" transform="rotate(30,12,12)" xlink:href="#use6076"/></svg>